<?xml version="1.0" standalone="no"?>
<!DOCTYPE svg PUBLIC "-//W3C//DTD SVG 20010904//EN"
 "http://www.w3.org/TR/2001/REC-SVG-20010904/DTD/svg10.dtd">
<svg version="1.0" xmlns="http://www.w3.org/2000/svg"
 width="96.000000pt" height="96.000000pt" viewBox="0 0 96.000000 96.000000"
 preserveAspectRatio="xMidYMid meet">
<metadata>
Created by potrace 1.11, written by Peter Selinger 2001-2013
</metadata>
<g transform="translate(0.000000,96.000000) scale(0.100000,-0.100000)"
fill="#000000" stroke="none">
<path d="M599 733 c-6 -16 -19 -38 -31 -50 -23 -24 -17 -63 9 -63 20 0 83 69
83 92 0 52 -43 67 -61 21z"/>
<path d="M286 721 c-20 -22 -16 -43 17 -84 30 -35 81 -42 85 -11 2 11 -8 32
-22 47 -13 14 -27 36 -31 47 -8 25 -27 26 -49 1z"/>
<path d="M815 642 c-62 -18 -75 -34 -53 -65 12 -16 17 -17 58 -3 25 8 63 18
85 23 34 7 40 12 40 33 0 22 -5 25 -35 27 -19 1 -62 -6 -95 -15z"/>
<path d="M661 636 c-17 -20 -10 -77 10 -89 29 -18 49 -1 49 41 0 55 -32 81
-59 48z"/>
<path d="M237 623 c-23 -22 4 -103 33 -103 26 0 40 76 18 98 -13 13 -41 16
-51 5z"/>
<path d="M835 556 c-82 -22 -102 -40 -71 -66 17 -13 51 -10 128 12 65 19 77
32 53 58 -10 11 -21 19 -24 19 -3 -1 -42 -11 -86 -23z"/>
<path d="M66 527 c-56 -14 -77 -37 -57 -61 17 -20 28 -20 119 1 76 18 94 32
72 58 -15 18 -64 18 -134 2z"/>
<path d="M524 500 c-19 -19 -22 -19 -61 -4 -38 15 -43 15 -77 -1 -28 -14 -36
-23 -36 -44 0 -47 44 -67 84 -38 14 10 29 11 66 3 40 -8 53 -7 74 7 27 18 33
45 16 78 -14 25 -40 24 -66 -1z"/>
<path d="M86 439 c-85 -23 -105 -46 -64 -73 16 -10 162 18 182 35 5 4 6 19 2
33 -8 31 -23 32 -120 5z"/>
<path d="M645 366 c-8 -19 -19 -37 -25 -41 -18 -11 -10 -35 16 -47 25 -12 29
-10 60 26 38 45 43 71 15 86 -34 18 -52 11 -66 -24z"/>
<path d="M210 329 c-20 -43 -22 -52 -10 -60 35 -21 71 1 83 51 6 25 -15 60
-38 60 -6 0 -22 -23 -35 -51z"/>
</g>
</svg>
